# Blender 4.2.0
# www.blender.org
mtllib Weapon.mtl
o GUN_COX
v 0.740129 1.119812 0.000000
v 0.775798 1.119812 0.000000
v 0.740129 1.073404 0.033181
v 0.740129 1.119812 0.033181
v 0.775798 1.119812 0.033181
v 0.630915 1.119812 0.000000
v 0.630915 1.073404 0.000000
v 0.630915 1.073404 0.033181
v 0.630915 1.119812 0.033181
v 0.830195 1.073404 0.000000
v 0.830195 1.119812 0.000000
v 0.830195 1.119812 0.033181
v 0.830195 1.073404 0.033181
v 0.830195 1.080209 0.004865
v 0.830195 1.113007 0.004865
v 0.830195 1.113007 0.028316
v 0.830195 1.080209 0.028316
v 0.846149 1.080209 0.004865
v 0.846149 1.113007 0.004865
v 0.846149 1.113007 0.028316
v 0.846149 1.080209 0.028316
v 0.775798 1.046867 0.033181
v 0.845076 1.073404 0.000000
v 0.845076 1.073404 0.033181
v 0.845076 1.046867 0.033181
v 0.845076 1.046867 0.000000
v 0.845076 1.035198 0.000000
v 0.845076 1.035198 0.033181
v 0.789461 1.046867 0.033181
v 0.789461 1.046867 0.000000
v 0.789461 1.035198 0.000000
v 0.789461 1.035198 0.033181
v 0.830195 1.046867 0.000000
v 0.830195 1.046867 0.033181
v 0.859614 1.046867 0.000000
v 0.859614 1.046867 0.033181
v 0.859614 1.035198 0.033181
v 0.859614 1.035198 0.000000
v 0.845076 1.022895 0.000000
v 0.859614 1.022895 0.000000
v 0.859614 1.022895 0.033181
v 0.845076 1.022895 0.033181
v 0.803365 1.035198 0.033181
v 0.803365 1.035198 0.000000
v 0.803365 1.022895 0.000000
v 0.803365 1.022895 0.033181
v 0.830195 1.035198 0.000000
v 0.830195 1.035198 0.033181
v 0.874822 1.035198 0.000000
v 0.874822 1.035198 0.033181
v 0.874822 1.022895 0.033181
v 0.874822 1.022895 0.000000
v 0.845076 1.010377 0.000000
v 0.859614 1.010377 0.000000
v 0.874822 1.010377 0.000000
v 0.874822 1.010377 0.033181
v 0.859614 1.010377 0.033181
v 0.845076 1.010377 0.033181
v 0.886861 1.022895 0.000000
v 0.886861 1.022895 0.033181
v 0.886861 1.010377 0.033181
v 0.886861 1.010377 0.000000
v 0.816133 1.022895 0.033181
v 0.816133 1.022895 0.000000
v 0.816133 1.010377 0.000000
v 0.816133 1.010377 0.033181
v 0.830195 1.022895 0.000000
v 0.830195 1.022895 0.033181
v 0.830195 0.992297 0.000000
v 0.845076 0.992297 0.000000
v 0.859614 0.992297 0.000000
v 0.874822 0.992297 0.000000
v 0.886861 0.992297 0.000000
v 0.886861 0.992297 0.033181
v 0.874822 0.992297 0.033181
v 0.859614 0.992297 0.033181
v 0.845076 0.992297 0.033181
v 0.830195 0.992297 0.033181
v 0.827861 1.010377 0.033181
v 0.827861 1.010377 0.000000
v 0.827861 0.992297 0.000000
v 0.827861 0.992297 0.033181
v 0.830195 1.010377 0.000000
v 0.830195 1.010377 0.033181
v 0.894137 1.010377 0.000000
v 0.894137 1.010377 0.033181
v 0.894137 0.992297 0.033181
v 0.894137 0.992297 0.000000
v 0.720240 1.119812 0.000000
v 0.650804 1.119812 0.000000
v 0.650804 1.073404 0.000000
v 0.720240 1.073404 0.033181
v 0.650804 1.073404 0.033181
v 0.720240 1.119812 0.033181
v 0.650804 1.119812 0.033181
v 0.740129 1.073404 0.027595
v 0.720240 1.073404 0.027595
v 0.720240 1.058712 0.027595
v 0.720240 1.073404 0.000000
v 0.740129 1.073404 0.000000
v 0.720240 1.073404 0.007406
v 0.740129 1.073404 0.007406
v 0.720240 1.058712 0.007406
v 0.720240 1.049912 0.027595
v 0.720240 1.049912 0.007406
v 0.775798 1.073404 0.033181
v 0.775798 1.073404 0.000000
v 0.775798 1.046867 0.000000
v 0.775798 1.058712 0.027595
v 0.775798 1.049912 0.027595
v 0.740129 1.058712 0.027595
v 0.740129 1.049912 0.027595
v 0.775798 1.049912 0.007406
v 0.775798 1.058712 0.007406
v 0.740129 1.049912 0.007406
v 0.740129 1.058712 0.007406
v 0.630915 1.111184 0.006169
v 0.630915 1.082032 0.006169
v 0.630915 1.082032 0.027012
v 0.630915 1.111184 0.027012
v 0.668216 1.111184 0.006169
v 0.668216 1.082032 0.006169
v 0.668216 1.082032 0.027012
v 0.668216 1.111184 0.027012
v 0.772086 1.119812 0.000000
v 0.772086 1.073404 0.000000
v 0.772086 1.073404 0.033181
v 0.772086 1.119812 0.033181
v 0.775798 1.115502 0.003082
v 0.775798 1.077714 0.003082
v 0.775798 1.077714 0.030100
v 0.775798 1.115502 0.030100
v 0.772086 1.077714 0.003082
v 0.772086 1.115502 0.003082
v 0.772086 1.115502 0.030100
v 0.772086 1.077714 0.030100
vn -0.0000 -0.0000 -1.0000
vn -0.0000 -0.0000 1.0000
vn -0.0000 -1.0000 -0.0000
vn 1.0000 -0.0000 -0.0000
vn -0.0000 1.0000 -0.0000
vn -1.0000 -0.0000 -0.0000
vt 0.599625 1.000000
vt 0.444227 1.000000
vt 0.444227 0.636058
vt 0.599625 0.636058
vt 0.555773 0.636058
vt 0.555773 1.000000
vt 0.400375 1.000000
vt 0.400375 0.636058
vt 0.555773 0.000000
vt 0.555773 1.000000
vt 0.400375 1.000000
vt 0.400375 0.831629
vt 0.400375 0.223202
vt 0.400375 0.000000
vt 0.689423 0.146630
vt 0.946635 0.146630
vt 0.946635 0.853369
vt 0.689423 0.853369
vt 0.444227 0.092869
vt 0.444227 0.907131
vt 0.430715 0.907131
vt 0.430715 0.092869
vt 0.067665 0.185921
vt 0.296277 0.185921
vt 0.296277 0.814078
vt 0.067665 0.814079
vt 0.927612 0.636058
vt 0.927612 1.000000
vt 0.672013 1.000000
vt 0.672013 0.636058
vt 0.072388 1.000000
vt 0.072388 0.000000
vt 0.327987 0.000000
vt 0.327987 0.223202
vt 0.327987 0.831629
vt 0.327987 1.000000
vt 0.072388 1.000000
vt 0.072388 0.636058
vt 0.327987 0.636058
vt 0.327987 1.000000
vt 0.927612 0.000000
vt 0.927612 1.000000
vt 0.672013 1.000000
vt 0.672013 0.000000
vt 0.430715 0.636058
vt 0.430715 1.000000
vt 0.232728 1.000000
vt 0.232728 0.636058
vt 0.430715 0.000000
vt 0.232728 1.000000
vt 0.232728 0.000000
vt 0.569285 1.000000
vt 0.569285 0.636058
vt 0.767272 0.636058
vt 0.767272 1.000000
vt 0.636058 0.000000
vt 1.000000 0.000000
vt 0.946635 0.146630
vt 1.000000 1.000000
vt 0.946635 0.853369
vt 0.636058 1.000000
vt 0.689423 0.853369
vt 0.232728 0.689423
vt 0.232728 0.946635
vt 0.174661 0.946635
vt 0.174661 0.689423
vt 0.232728 0.146630
vt 0.232728 0.853369
vt 0.174661 0.853369
vt 0.174661 0.146630
vt 0.767272 0.946635
vt 0.767272 0.689423
vt 0.825339 0.689423
vt 0.825339 0.946635
vt 0.767272 0.853369
vt 0.767272 0.146630
vt 0.825339 0.146630
vt 0.825339 0.853369
vt 0.232728 0.427949
vt 0.380986 0.427949
vt 0.430715 0.427949
vt 0.636058 0.000000
vt 0.427949 1.000000
vt 0.427949 0.000000
vt 0.569285 0.427949
vt 0.619014 0.427949
vt 0.767272 0.427949
vt 0.232728 0.000000
vt 0.232728 1.000000
vt 0.178567 1.000000
vt 0.178567 0.000000
vt 0.821433 0.427949
vt 0.821433 0.636058
vt 0.767271 1.000000
vt 0.767271 0.000000
vt 0.821433 0.000000
vt 0.821433 1.000000
vt 0.178567 0.636058
vt 0.178567 0.427949
vt 0.572051 1.000000
vt 0.572051 0.000000
vt 0.663561 0.000000
vt 0.663561 1.000000
vt 0.178567 0.336439
vt 0.232728 0.336439
vt 0.427949 0.000000
vt 0.427949 1.000000
vt 0.336439 1.000000
vt 0.336439 0.000000
vt 0.767272 0.336439
vt 0.821433 0.336439
vt 0.569285 1.000000
vt 0.569285 0.000000
vt 0.619014 0.000000
vt 0.619014 1.000000
vt 0.330381 0.336439
vt 0.380986 0.336439
vt 0.619014 0.336439
vt 0.669619 0.336439
vt 0.178567 0.000000
vt 0.178567 1.000000
vt 0.125652 1.000000
vt 0.125652 0.000000
vt 0.874348 0.336439
vt 0.874348 0.427949
vt 0.874348 0.000000
vt 0.874348 1.000000
vt 0.125652 0.427949
vt 0.125652 0.336439
vt 0.178567 0.239955
vt 0.232728 0.239955
vt 0.125652 0.239955
vt 0.336439 0.000000
vt 0.336439 1.000000
vt 0.239955 1.000000
vt 0.239955 0.000000
vt 0.821433 0.239955
vt 0.874348 0.239955
vt 0.767272 0.239955
vt 0.663561 1.000000
vt 0.760045 0.000000
vt 0.760045 1.000000
vt 0.619014 1.000000
vt 0.669619 0.000000
vt 0.669619 1.000000
vt 0.283907 0.239955
vt 0.330381 0.239955
vt 0.669619 0.239955
vt 0.716093 0.239955
vt 0.125652 1.000000
vt 0.070300 1.000000
vt 0.070300 0.000000
vt 0.929700 0.239955
vt 0.929700 0.336439
vt 0.929700 0.000000
vt 0.929700 1.000000
vt 0.070300 0.336439
vt 0.070300 0.239955
vt 0.178567 0.141784
vt 0.232729 0.141784
vt 0.125652 0.141784
vt 0.070300 0.141784
vt 0.239955 0.000000
vt 0.141784 1.000000
vt 0.141784 0.000000
vt 0.874348 0.141784
vt 0.929700 0.141784
vt 0.821433 0.141784
vt 0.767271 0.141784
vt 0.760045 0.000000
vt 0.858216 0.000000
vt 0.858216 1.000000
vt 0.070300 0.000000
vt 0.026483 1.000000
vt 0.026483 0.000000
vt 0.973517 0.141784
vt 0.973517 0.239955
vt 0.973517 0.000000
vt 0.973517 1.000000
vt 0.026483 0.239955
vt 0.026483 0.141784
vt 0.669619 0.000000
vt 0.716093 0.000000
vt 0.716093 1.000000
vt 0.241223 0.141784
vt 0.283907 0.141784
vt 0.716093 0.141784
vt 0.758777 0.141784
vt 0.178567 0.000000
vt 0.232729 0.000000
vt 0.125652 0.000000
vt 0.070300 0.000000
vt 0.026483 0.000000
vt 0.141784 1.000000
vt 0.000000 1.000000
vt 0.000000 0.000000
vt 0.929700 0.000000
vt 0.973517 0.000000
vt 0.874348 0.000000
vt 0.821433 0.000000
vt 0.767271 0.000000
vt 0.858216 1.000000
vt 1.000000 0.000000
vt 1.000000 1.000000
vt 0.716093 1.000000
vt 0.716093 0.000000
vt 0.758777 0.000000
vt 0.758777 1.000000
vt 0.241223 0.000000
vt 0.758777 0.000000
vt 0.758777 0.000000
vt 0.026483 0.000000
vt 0.026483 1.000000
vt 0.000000 1.000000
vt 0.000000 0.000000
vt 1.000000 0.000000
vt 1.000000 0.141784
vt 1.000000 0.000000
vt 1.000000 1.000000
vt 0.000000 0.141784
vt 0.000000 0.000000
vt 1.000000 0.636058
vt 1.000000 1.000000
vt 0.000000 1.000000
vt 0.000000 0.000000
vt 0.000000 1.000000
vt 0.000000 0.636058
vt 1.000000 0.000000
vt 1.000000 1.000000
vt 0.599625 1.000000
vt 0.599625 0.000000
vt 0.327987 0.520842
vt 0.400375 0.520842
vt 0.672013 0.636058
vt 0.599625 0.520842
vt 0.672013 0.520842
vt 0.636058 0.223202
vt 0.636058 0.831629
vt 0.520842 0.831629
vt 0.520842 0.223202
vt 0.400375 0.223202
vt 0.400375 0.831630
vt 0.327987 0.831630
vt 0.327987 0.223202
vt 0.479158 0.223202
vt 0.479158 0.831629
vt 0.363942 0.831629
vt 0.363942 0.223202
vt 0.327987 0.451831
vt 0.400375 0.451831
vt 0.548169 0.223202
vt 0.548169 0.831630
vt 0.599625 0.451831
vt 0.672013 0.451831
vt 0.479158 0.223202
vt 0.479158 0.831629
vt 0.363942 1.000000
vt 0.363942 0.000000
vt 0.548169 0.831630
vt 0.548169 0.223202
vt 0.572051 0.000000
vt 0.430715 0.223202
vt 0.599625 0.223202
vt 0.599625 0.831629
vt 0.430715 0.831629
vt 0.569285 0.520842
vt 0.569285 0.451831
vt 0.569285 0.831630
vt 0.569285 0.223202
vt 0.430715 0.451831
vt 0.430715 0.520842
vt 0.363942 0.000000
vt 0.296277 0.185921
vt 0.067665 0.185921
vt 0.363942 1.000000
vt 0.296277 0.814079
vt 0.000000 1.000000
vt 0.067665 0.814079
vt 0.000000 0.932335
vt 0.000000 0.703723
vt 0.135764 0.703723
vt 0.135764 0.932335
vt 1.000000 0.185921
vt 1.000000 0.814079
vt 0.864236 0.814078
vt 0.864236 0.185921
vt 1.000000 0.703723
vt 1.000000 0.932335
vt 0.864236 0.932335
vt 0.864236 0.703723
vt 0.000000 0.814079
vt 0.000000 0.185921
vt 0.135764 0.185921
vt 0.135764 0.814079
vt 0.430715 0.966201
vt 0.430715 0.669857
vt 0.444227 0.669857
vt 0.444227 0.966201
vt 0.569285 0.669857
vt 0.569285 0.966201
vt 0.555773 0.966201
vt 0.555773 0.669857
vt 0.569285 0.092869
vt 0.569285 0.907131
vt 0.555773 0.907131
vt 0.555773 0.092869
vt 0.444227 0.000000
vt 0.000000 0.000000
vt 0.330143 0.092869
vt 0.033799 0.092869
vt 0.330143 0.907131
vt 0.000000 1.000000
vt 0.033799 0.907131
vt 0.636058 0.000000
vt 1.000000 0.000000
vt 0.966201 0.092869
vt 0.669857 0.092869
vt 1.000000 1.000000
vt 0.966201 0.907131
vt 0.636058 1.000000
vt 0.669857 0.907131
s 1
usemtl 06_-_Default
f 1/1/1 125/2/1 126/3/1 100/4/1
f 127/5/2 128/6/2 4/7/2 3/8/2
f 126/9/3 127/10/3 3/11/3 96/12/3 102/13/3 100/14/3
f 18/15/4 19/16/4 20/17/4 21/18/4
f 134/19/5 135/20/5 132/21/5 129/22/5
f 121/23/6 122/24/6 123/25/6 124/26/6
f 91/27/1 90/28/1 89/29/1 99/30/1
f 93/31/3 91/32/3 99/33/3 101/34/3 97/35/3 92/36/3
f 95/37/2 93/38/2 92/39/2 94/40/2
f 90/41/5 95/42/5 94/43/5 89/44/5
f 107/45/1 2/46/1 11/47/1 10/48/1
f 2/49/5 5/46/5 12/50/5 11/51/5
f 5/52/2 106/53/2 13/54/2 12/55/2
f 10/56/4 11/57/4 15/58/4 14/15/4
f 11/57/4 12/59/4 16/60/4 15/58/4
f 12/59/4 13/61/4 17/62/4 16/60/4
f 13/61/4 10/56/4 14/15/4 17/62/4
f 14/63/1 15/64/1 19/65/1 18/66/1
f 15/67/5 16/68/5 20/69/5 19/70/5
f 16/71/2 17/72/2 21/73/2 20/74/2
f 17/75/3 14/76/3 18/77/3 21/78/3
f 107/45/1 10/48/1 33/79/1 30/80/1 108/81/1
f 23/82/4 24/61/4 25/83/4 26/84/4
f 13/54/2 106/53/2 22/85/2 29/86/2 34/87/2
f 10/88/5 13/89/5 24/90/5 23/91/5
f 13/54/2 34/87/2 25/92/2 24/93/2
f 33/79/1 10/48/1 23/98/1 26/99/1
f 22/112/3 108/113/3 30/114/3 29/115/3
f 7/222/1 6/223/1 90/28/1 91/27/1
f 1/1/1 100/4/1 99/30/1 89/29/1
f 8/224/3 7/225/3 91/32/3 93/31/3
f 9/226/2 8/227/2 93/38/2 95/37/2
f 3/8/2 4/7/2 94/40/2 92/39/2
f 6/228/5 9/229/5 95/42/5 90/41/5
f 4/230/5 1/231/5 89/44/5 94/43/5
f 96/8/2 97/39/2 98/232/2 111/233/2
f 101/234/1 102/4/1 116/235/1 103/236/1
f 3/11/3 92/36/3 97/35/3 96/12/3
f 99/33/3 100/14/3 102/13/3 101/34/3
f 102/237/4 96/238/4 111/239/4 116/240/4
f 115/241/3 112/242/3 104/243/3 105/244/3
f 103/245/6 98/246/6 97/247/6 101/248/6
f 111/233/2 98/232/2 104/249/2 112/250/2
f 98/246/6 103/245/6 105/251/6 104/252/6
f 103/236/1 116/235/1 115/253/1 105/254/1
f 114/255/6 109/256/6 106/257/6 107/258/6
f 109/256/6 110/259/6 22/100/6 106/257/6
f 113/260/6 108/261/6 22/100/6 110/259/6
f 114/255/6 107/258/6 108/261/6 113/260/6
f 114/262/5 116/263/5 111/264/5 109/265/5
f 109/266/2 111/233/2 112/250/2 110/267/2
f 110/268/3 112/242/3 115/241/3 113/269/3
f 113/270/1 115/253/1 116/235/1 114/271/1
f 6/225/6 7/272/6 118/273/6 117/274/6
f 7/272/6 8/275/6 119/276/6 118/273/6
f 8/275/6 9/277/6 120/278/6 119/276/6
f 9/277/6 6/225/6 117/274/6 120/278/6
f 117/279/2 118/280/2 122/281/2 121/282/2
f 118/283/5 119/284/5 123/285/5 122/286/5
f 119/287/1 120/288/1 124/289/1 123/290/1
f 120/291/3 117/292/3 121/293/3 124/294/3
f 129/295/1 130/296/1 133/297/1 134/298/1
f 131/299/2 132/300/2 135/301/2 136/302/2
f 130/303/3 131/304/3 136/305/3 133/306/3
f 1/231/5 4/230/5 128/2/5 125/307/5
f 2/308/6 107/258/6 130/309/6 129/310/6
f 107/258/6 106/257/6 131/311/6 130/309/6
f 106/257/6 5/312/6 132/313/6 131/311/6
f 5/312/6 2/308/6 129/310/6 132/313/6
f 126/314/4 125/315/4 134/316/4 133/317/4
f 125/315/4 128/318/4 135/319/4 134/316/4
f 128/318/4 127/320/4 136/321/4 135/319/4
f 127/320/4 126/314/4 133/317/4 136/321/4
usemtl 12_-_Default
f 78/94/3 69/95/3 70/96/3 77/97/3
f 29/100/6 30/101/6 31/102/6 32/103/6
f 33/79/1 26/99/1 27/104/1 47/105/1
f 35/106/4 36/107/4 37/108/4 38/109/4
f 25/92/2 34/87/2 48/110/2 28/111/2
f 30/80/1 33/79/1 47/105/1 44/116/1 31/117/1
f 29/86/2 32/118/2 43/119/2 48/110/2 34/87/2
f 26/120/5 25/121/5 36/122/5 35/123/5
f 25/92/2 28/111/2 37/124/2 36/125/2
f 77/97/3 70/96/3 71/126/3 76/127/3
f 27/104/1 26/99/1 35/128/1 38/129/1
f 47/105/1 27/104/1 39/130/1 67/131/1
f 27/104/1 38/129/1 40/132/1 39/130/1
f 49/133/4 50/134/4 51/135/4 52/136/4
f 37/124/2 28/111/2 42/137/2 41/138/2
f 28/111/2 48/110/2 68/139/2 42/137/2
f 43/140/6 44/102/6 45/141/6 46/142/6
f 32/143/3 31/114/3 44/144/3 43/145/3
f 44/116/1 47/105/1 67/131/1 64/146/1 45/147/1
f 43/119/2 46/148/2 63/149/2 68/139/2 48/110/2
f 38/123/5 37/150/5 50/151/5 49/152/5
f 37/124/2 41/138/2 51/153/2 50/154/2
f 76/127/3 71/126/3 72/155/3 75/156/3
f 40/132/1 38/129/1 49/157/1 52/158/1
f 67/131/1 39/130/1 53/159/1 83/160/1
f 39/130/1 40/132/1 54/161/1 53/159/1
f 40/132/1 52/158/1 55/162/1 54/161/1
f 59/163/4 60/135/4 61/164/4 62/165/4
f 51/153/2 41/138/2 57/166/2 56/167/2
f 41/138/2 42/137/2 58/168/2 57/166/2
f 42/137/2 68/139/2 84/169/2 58/168/2
f 63/142/6 64/170/6 65/171/6 66/172/6
f 52/173/5 51/151/5 60/174/5 59/175/5
f 51/153/2 56/167/2 61/176/2 60/177/2
f 75/156/3 72/155/3 73/178/3 74/179/3
f 55/162/1 52/158/1 59/180/1 62/181/1
f 46/145/3 45/182/3 64/183/3 63/184/3
f 64/146/1 67/131/1 83/160/1 80/185/1 65/186/1
f 63/149/2 66/187/2 79/188/2 84/169/2 68/139/2
f 83/160/1 53/159/1 70/189/1 69/190/1
f 53/159/1 54/161/1 71/191/1 70/189/1
f 54/161/1 55/162/1 72/192/1 71/191/1
f 55/162/1 62/181/1 73/193/1 72/192/1
f 85/165/4 86/194/4 87/195/4 88/196/4
f 61/176/2 56/167/2 75/197/2 74/198/2
f 56/167/2 57/166/2 76/199/2 75/197/2
f 57/166/2 58/168/2 77/200/2 76/199/2
f 58/168/2 84/169/2 78/201/2 77/200/2
f 79/202/6 80/171/6 81/203/6 82/204/6
f 66/205/3 65/206/3 80/207/3 79/208/3
f 80/185/1 83/160/1 69/190/1 81/209/1
f 81/210/3 69/95/3 78/94/3 82/208/3
f 82/211/2 78/201/2 84/169/2 79/188/2
f 62/212/5 61/213/5 86/214/5 85/215/5
f 61/176/2 74/198/2 87/216/2 86/217/2
f 74/179/3 73/178/3 88/218/3 87/219/3
f 73/193/1 62/181/1 85/220/1 88/221/1
